<svg width="192" height="192" viewBox="0 0 192 192" fill="none" xmlns="http://www.w3.org/2000/svg">
  <rect width="192" height="192" rx="32" fill="#121212"/>
  <path d="M96 48C65.072 48 40 73.072 40 104C40 134.928 65.072 160 96 160C126.928 160 152 134.928 152 104C152 73.072 126.928 48 96 48ZM96 144C74.024 144 56 125.976 56 104C56 82.024 74.024 64 96 64C117.976 64 136 82.024 136 104C136 125.976 117.976 144 96 144Z" fill="url(#paint0_linear)"/>
  <defs>
    <linearGradient id="paint0_linear" x1="40" y1="48" x2="152" y2="160" gradientUnits="userSpaceOnUse">
      <stop stop-color="#007BFF"/>
      <stop offset="1" stop-color="#0056b3"/>
    </linearGradient>
  </defs>
</svg> 